<svg height="512" viewBox="0 0 32 32" width="512" xmlns="http://www.w3.org/2000/svg"><g id="_11-Volume" data-name="11-Volume"><path d="m17.5 4a2.53 2.53 0 0 0 -1.5.5l-7.33 5.5h-3.67a3 3 0 0 0 -3 3v6a3 3 0 0 0 3 3h3.67l7.33 5.5a2.53 2.53 0 0 0 1.5.5 2.5 2.5 0 0 0 2.5-2.5v-19a2.5 2.5 0 0 0 -2.5-2.5z"/><path d="m26.78 8.22a1 1 0 1 0 -1.42 1.42 9 9 0 0 1 0 12.72 1 1 0 0 0 0 1.42 1 1 0 0 0 1.42 0 11 11 0 0 0 0-15.56z"/><path d="m23.94 11.05a1 1 0 1 0 -1.4 1.42 5 5 0 0 1 0 7.06 1 1 0 0 0 .7 1.71 1 1 0 0 0 .7-.29 7 7 0 0 0 0-9.9z"/></g></svg>