<svg height="512" viewBox="0 0 32 32" width="512" xmlns="http://www.w3.org/2000/svg"><g id="_12-Mute" data-name="12-Mute"><path d="m17.5 4a2.53 2.53 0 0 0 -1.5.5l-7.33 5.5h-3.67a3 3 0 0 0 -3 3v6a3 3 0 0 0 3 3h3.67l7.33 5.5a2.53 2.53 0 0 0 1.5.5 2.5 2.5 0 0 0 2.5-2.5v-19a2.5 2.5 0 0 0 -2.5-2.5z"/><path d="m27.41 16 2.3-2.29a1 1 0 0 0 -1.42-1.42l-2.29 2.3-2.29-2.3a1 1 0 0 0 -1.42 1.42l2.3 2.29-2.3 2.29a1 1 0 0 0 0 1.42 1 1 0 0 0 1.42 0l2.29-2.3 2.29 2.3a1 1 0 0 0 1.42 0 1 1 0 0 0 0-1.42z"/></g></svg>