<svg id="Layer_1" enable-background="new 0 0 32 32" height="512" viewBox="0 0 32 32" width="512" xmlns="http://www.w3.org/2000/svg"><g><path d="m4 6h20c1.1 0 2-.9 2-2s-.9-2-2-2h-20c-1.1 0-2 .9-2 2s.9 2 2 2z"/><path d="m4 16h20c1.1 0 2-.9 2-2s-.9-2-2-2h-20c-1.1 0-2 .9-2 2s.9 2 2 2z"/><path d="m14 22h-10c-1.1 0-2 .9-2 2s.9 2 2 2h10c1.1 0 2-.9 2-2s-.9-2-2-2z"/><path d="m28 22h-2v-2c0-1.1-.9-2-2-2s-2 .9-2 2v2h-2c-1.1 0-2 .9-2 2s.9 2 2 2h2v2c0 1.1.9 2 2 2s2-.9 2-2v-2h2c1.1 0 2-.9 2-2s-.9-2-2-2z"/></g></svg>