<svg id="Layer_1" enable-background="new 0 0 32 32" height="512" viewBox="0 0 32 32" width="512" xmlns="http://www.w3.org/2000/svg"><g><path d="m4 7h12c1.1 0 2-.9 2-2s-.9-2-2-2h-12c-1.1 0-2 .9-2 2s.9 2 2 2z"/><path d="m4 16h12c1.1 0 2-.9 2-2s-.9-2-2-2h-12c-1.1 0-2 .9-2 2s.9 2 2 2z"/><path d="m9 21h-5c-1.1 0-2 .9-2 2s.9 2 2 2h5c1.1 0 2-.9 2-2s-.9-2-2-2z"/><path d="m25.9 6.7c-1.6-.8-1.9-1.1-1.9-1.7 0-1.1-.9-2-2-2s-2 .9-2 2v14.2c-.5-.1-1-.2-1.5-.2-3 0-5.5 2.2-5.5 5s2.5 5 5.5 5 5.5-2.2 5.5-5v-13.8s.1 0 .1.1c1.6.8 1.9 1.1 1.9 1.7 0 1.1.9 2 2 2s2-.9 2-2c0-3.2-2.5-4.5-4.1-5.3z"/></g></svg>