<svg id="Layer_1" enable-background="new 0 0 32 32" height="512" viewBox="0 0 32 32" width="512" xmlns="http://www.w3.org/2000/svg"><g><circle cx="8" cy="12" r="1"/><path d="m27 2h-22c-1.7 0-3 1.3-3 3v22c0 1.7 1.3 3 3 3h22c1.7 0 3-1.3 3-3v-22c0-1.7-1.3-3-3-3zm-18 24c0 .5-.5 1-1 1s-1-.5-1-1v-8c0-.5.5-1 1-1s1 .5 1 1zm-1-11c-1.7 0-3-1.3-3-3 0-1.3.8-2.4 2-2.8v-3.2c0-.5.5-1 1-1s1 .5 1 1v3.2c1.2.4 2 1.5 2 2.8 0 1.7-1.3 3-3 3zm9 11c0 .5-.5 1-1 1s-1-.5-1-1v-2c0-.5.5-1 1-1s1 .5 1 1zm-1-5c-1.7 0-3-1.3-3-3 0-1.3.8-2.4 2-2.8v-9.2c0-.5.5-1 1-1s1 .5 1 1v9.2c1.2.4 2 1.5 2 2.8 0 1.7-1.3 3-3 3zm9 5c0 .5-.5 1-1 1s-1-.5-1-1v-8c0-.5.5-1 1-1s1 .5 1 1zm-1-11c-1.7 0-3-1.3-3-3 0-1.3.8-2.4 2-2.8v-3.2c0-.5.5-1 1-1s1 .5 1 1v3.2c1.2.4 2 1.5 2 2.8 0 1.7-1.3 3-3 3z"/><circle cx="24" cy="12" r="1"/><circle cx="16" cy="18" r="1"/></g></svg>