<svg height="512" viewBox="0 0 32 32" width="512" xmlns="http://www.w3.org/2000/svg"><g id="_24-Video" data-name="24-Video"><path d="m2 27a3 3 0 0 0 3 3h3v-5h-6z"/><path d="m8 2h-3a3 3 0 0 0 -3 3v2h6z"/><path d="m10 2h5v5h-5z"/><path d="m10 25h5v5h-5z"/><path d="m17 2h5v5h-5z"/><path d="m27 2h-3v5h6v-2a3 3 0 0 0 -3-3z"/><path d="m2 23h28v-14h-28zm10-10.2a2 2 0 0 1 1-1.74 2 2 0 0 1 2 0l5.11 3.19a2 2 0 0 1 0 3.4l-5.11 3.19a2 2 0 0 1 -1 .36 2 2 0 0 1 -2-2z"/><path d="m24 30h3a3 3 0 0 0 3-3v-2h-6z"/><path d="m17 25h5v5h-5z"/></g></svg>