<svg id="Layer_1" enable-background="new 0 0 32 32" height="512" viewBox="0 0 32 32" width="512" xmlns="http://www.w3.org/2000/svg"><g><path d="m29.7 6.3-4-4c-.3-.3-.7-.4-1.1-.2-.4.1-.6.5-.6.9v2h-13c-4.4 0-8 3.6-8 8v2c0 1.1.9 2 2 2s2-.9 2-2v-2c0-2.2 1.8-4 4-4h13v2c0 .4.2.8.6.9.1.1.3.1.4.1.3 0 .5-.1.7-.3l4-4c.4-.4.4-1 0-1.4z"/><path d="m27 15c-1.1 0-2 .9-2 2v2c0 2.2-1.8 4-4 4h-13v-2c0-.4-.2-.8-.6-.9-.4-.2-.8-.1-1.1.2l-4 4c-.4.4-.4 1 0 1.4l4 4c.2.2.4.3.7.3.1 0 .3 0 .4-.1.4-.1.6-.5.6-.9v-2h13c4.4 0 8-3.6 8-8v-2c0-1.1-.9-2-2-2z"/></g></svg>