<svg height="512" viewBox="0 0 32 32" width="512" xmlns="http://www.w3.org/2000/svg"><g id="_32-Music-file" data-name="32-Music-file"><path d="m22 8h3.41l-4.41-4.41v3.41a1 1 0 0 0 1 1z"/><path d="m22 10a3 3 0 0 1 -3-3v-5h-11a3 3 0 0 0 -3 3v22a3 3 0 0 0 3 3h16a3 3 0 0 0 3-3v-17zm-2 8a1 1 0 0 1 -1-1c0-.94-.33-1.19-1-1.63v6.63a3.29 3.29 0 0 1 -3.5 3 3.29 3.29 0 0 1 -3.5-3 3.29 3.29 0 0 1 3.5-3 3.9 3.9 0 0 1 1.5.3v-7.3a1 1 0 0 1 2 0c0 1 .35 1.2 1.05 1.67a3.57 3.57 0 0 1 1.95 3.33 1 1 0 0 1 -1 1z"/></g></svg>