<svg id="Layer_1" enable-background="new 0 0 32 32" height="512" viewBox="0 0 32 32" width="512" xmlns="http://www.w3.org/2000/svg"><g><path d="m23.5 9h.5v2c0 .4.2.8.6.9.1.1.3.1.4.1.3 0 .5-.1.7-.3l4-4c.4-.4.4-1 0-1.4l-4-4c-.3-.3-.7-.4-1.1-.2s-.6.5-.6.9v2h-.5c-2.9 0-5.6 1.6-7 4.1l-6.5 11.8c-.7 1.3-2 2.1-3.5 2.1h-2.5c-1.1 0-2 .9-2 2s.9 2 2 2h2.5c2.9 0 5.6-1.6 7-4.1l6.5-11.8c.7-1.3 2.1-2.1 3.5-2.1z"/><path d="m4 9h2.5c1.5 0 2.8.8 3.5 2.1l1.6 2.9 2.3-4.1-.4-.7c-1.5-2.6-4.1-4.2-7-4.2h-2.5c-1.1 0-2 .9-2 2s.9 2 2 2z"/><path d="m25.7 20.3c-.3-.3-.7-.4-1.1-.2-.4.1-.6.5-.6.9v2h-.5c-1.5 0-2.8-.8-3.5-2.1l-1.6-2.9-2.3 4.1.4.7c1.4 2.5 4.1 4.1 7 4.1h.5v2c0 .4.2.8.6.9.1.2.3.2.4.2.3 0 .5-.1.7-.3l4-4c.4-.4.4-1 0-1.4z"/></g></svg>