<svg id="Layer_1" enable-background="new 0 0 32 32" height="512" viewBox="0 0 32 32" width="512" xmlns="http://www.w3.org/2000/svg"><g><path d="m16 2c-2.7 0-5.2.7-7.4 2.2l-1.9-1.9c-.3-.3-.7-.4-1.1-.2-.4.1-.6.5-.6.9v6c0 .6.4 1 1 1h6c.4 0 .8-.2.9-.6.2-.4.1-.8-.2-1.1l-1.2-1.2c1.4-.7 2.9-1.1 4.5-1.1 5.5 0 10 4.5 10 10s-4.5 10-10 10-10-4.5-10-10c0-.3 0-.5 0-.8.1-1.1-.7-2.1-1.8-2.2s-2.1.7-2.2 1.8v1.2c0 7.7 6.3 14 14 14s14-6.3 14-14-6.3-14-14-14z"/><path d="m14 21.2c.4 0 .7-.1 1.1-.3l5.1-3.2c.6-.4.9-1 .9-1.7s-.4-1.3-.9-1.7l-5.1-3.2c-.6-.4-1.4-.4-2-.1-.6.4-1 1-1 1.7v6.4c0 .7.4 1.4 1 1.7.2.3.6.4.9.4z"/></g></svg>