<svg id="Layer_1" enable-background="new 0 0 32 32" height="512" viewBox="0 0 32 32" width="512" xmlns="http://www.w3.org/2000/svg"><path d="m19 14h7c.4 0 .8-.2.9-.6.2-.4.1-.8-.2-1.1l-2.1-2.1 4.8-4.8c.8-.8.8-2 0-2.8-.4-.4-.9-.6-1.4-.6s-1 .2-1.4.6l-4.8 4.8-2.1-2.1c-.2-.2-.4-.3-.7-.3-.1 0-.3 0-.4.1-.4.1-.6.5-.6.9v7c0 .6.4 1 1 1z"/><path d="m5.4 29.4 4.8-4.8 2.1 2.1c.3.3.7.4 1.1.2s.6-.5.6-.9v-7c0-.6-.4-1-1-1h-7c-.4 0-.8.2-.9.6-.2.4-.1.8.2 1.1l2.1 2.1-4.8 4.8c-.8.8-.8 2 0 2.8s2 .8 2.8 0z"/><path d="m18.6 26.9c.4.2.8.1 1.1-.2l2.1-2.1 4.8 4.8c.8.8 2 .8 2.8 0s.8-2 0-2.8l-4.8-4.8 2.1-2.1c.3-.3.4-.7.2-1.1-.1-.4-.5-.6-.9-.6h-7c-.6 0-1 .4-1 1v7c0 .4.2.8.6.9z"/><path d="m7.4 10.2-2.1 2.1c-.3.3-.4.7-.2 1.1.1.4.5.6.9.6h7c.6 0 1-.4 1-1v-7c0-.4-.2-.8-.6-.9-.1-.1-.3-.1-.4-.1-.3 0-.5.1-.7.3l-2.1 2.1-4.8-4.8c-.4-.4-.9-.6-1.4-.6s-1 .2-1.4.6c-.8.8-.8 2 0 2.8z"/></svg>